<?xml version="1.0" encoding="UTF-8"?>
<svg width="752pt" height="752pt" version="1.1" viewBox="0 0 752 752" xmlns="http://www.w3.org/2000/svg">
 <defs>
  <clipPath id="a">
   <path d="m139.21 165h473.58v422h-473.58z"/>
  </clipPath>
 </defs>
 <path d="m564.71 190.21h10.93v10.93h-10.93z"/>
 <path d="m537.02 190.21h10.93v10.93h-10.93z"/>
 <path d="m509.33 190.21h10.93v10.93h-10.93z"/>
 <path d="m180.74 190.21h292.16v10.93h-292.16z"/>
 <path d="m576.36 405.88h-14.574v-107.83h-10.926v107.83h-23.316v-95.445h-10.199v95.445h-23.316v-58.289h-10.926v58.289h-23.316v-67.762h-10.93v67.762h-22.586v-81.602h-10.93v81.602h-23.312v-53.918h-10.93v53.918h-14.57v10.926h209.83z"/>
 <path d="m280.55 296.59h33.516v-10.93h14.57v-10.93h-14.57v-11.656h-33.516v10.93h-105.64v10.93h105.64zm10.93-22.586h11.656v11.656h-11.656z"/>
 <path d="m204.05 340.3h33.516v-10.93h91.074v-10.93h-91.074v-11.656h-33.516v10.93h-29.145v10.93h29.145zm10.93-22.586h11.656v11.656h-11.656z"/>
 <path d="m257.24 384.02h33.516v-10.93h37.887v-10.93h-37.887v-11.656h-33.516v10.93h-82.332v10.93h82.332zm10.93-22.586h11.656v11.656h-11.656z"/>
 <path d="m236.84 416.8v10.93h33.516v-10.93h58.285v-10.93h-58.285v-11.656h-33.516v10.93h-61.93v10.93h61.93zm10.93-11.656h11.656v11.656h-11.656z"/>
 <g clip-path="url(#a)">
  <path d="m587.29 165.44h-422.58c-15.301 0-26.957 12.387-26.957 26.957v276.86c0 15.301 12.387 26.957 26.957 26.957h147.18v56.102h-24.773c-7.2852 0-12.387 5.8281-12.387 12.387v21.859h201.82v-21.859c0-7.2852-5.8281-12.387-12.387-12.387h-24.773l0.003907-56.102h147.18c15.301 0 26.957-12.387 26.957-26.957v-276.86c0.73047-14.574-11.656-26.957-26.227-26.957zm-422.58 10.926h421.85c8.7422 0 16.027 7.2852 16.027 16.027v22.586l-453.91 0.003906v-22.586c0-8.7422 7.2852-16.031 16.027-16.031zm438.61 50.273v222.22h-454.64v-222.22zm-139.16 336.61c0.73047 0 1.457 0.73047 1.457 1.457v10.93h-179.96v-10.93c0-0.73047 0.73047-1.457 1.457-1.457zm-35.699-10.926h-104.92v-56.102h105.64v56.102zm158.83-66.301h-422.58c-8.7422 0-16.027-7.2852-16.027-16.027v-10.203h454.64v9.4727c0 8.7422-7.2852 16.758-16.027 16.758z"/>
 </g>
</svg>
