<?xml version="1.0" encoding="iso-8859-1"?>
<!-- Generator: Adobe Illustrator 19.0.0, SVG Export Plug-In . SVG Version: 6.00 Build 0)  -->
<svg version="1.1" id="Layer_1" xmlns="http://www.w3.org/2000/svg" xmlns:xlink="http://www.w3.org/1999/xlink" x="0px" y="0px"
	 viewBox="0 0 512 512" style="enable-background:new 0 0 512 512;" xml:space="preserve">
<g>
	<g>
		<path d="M501.801,27.371H10.199C4.566,27.371,0,31.937,0,37.57v90.162c0,5.633,4.566,10.199,10.199,10.199h16.136V474.43
			c0,5.633,4.566,10.199,10.199,10.199h438.93c5.633,0,10.199-4.566,10.199-10.199V137.933h16.137
			c5.633,0,10.199-4.566,10.199-10.199V37.57C512,31.937,507.434,27.371,501.801,27.371z M46.734,464.232V137.933h418.531v326.299
			H46.734z M491.602,117.533H20.398V47.769h471.203V117.533z"/>
	</g>
</g>
<g>
	<g>
		<path d="M348.31,284.978H163.691c-5.633,0-10.199,4.566-10.199,10.199v115.924c0,5.633,4.566,10.199,10.199,10.199H348.31
			c5.633,0,10.199-4.566,10.199-10.199V295.178C358.509,289.545,353.943,284.978,348.31,284.978z M338.111,400.904H173.89v-95.526
			h164.22V400.904z"/>
	</g>
</g>
<g>
	<g>
		<path d="M313.962,164.763H198.038c-20.42,0-37.033,16.613-37.033,37.033c0,20.42,16.613,37.033,37.033,37.033h115.924
			c20.42,0,37.033-16.613,37.033-37.033C350.995,181.376,334.382,164.763,313.962,164.763z M313.962,218.43H198.038
			c-9.173,0-16.635-7.462-16.635-16.635s7.463-16.635,16.635-16.635h115.924c9.173,0,16.635,7.462,16.635,16.635
			S323.135,218.43,313.962,218.43z"/>
	</g>
</g>
<g>
	<g>
		<path d="M310.741,324.694H201.259c-5.633,0-10.199,4.566-10.199,10.199c0,5.633,4.566,10.199,10.199,10.199h109.483
			c5.633,0,10.199-4.566,10.199-10.199C320.941,329.26,316.374,324.694,310.741,324.694z"/>
	</g>
</g>
<g>
	<g>
		<path d="M310.741,361.188H201.259c-5.633,0-10.199,4.566-10.199,10.199c0,5.633,4.566,10.199,10.199,10.199h109.483
			c5.633,0,10.199-4.566,10.199-10.199C320.941,365.754,316.374,361.188,310.741,361.188z"/>
	</g>
</g>
<g>
	<g>
		<path d="M310.741,85.333H45.62c-5.633,0-10.199,4.566-10.199,10.199s4.567,10.199,10.199,10.199h265.121
			c5.633,0,10.199-4.566,10.199-10.199S316.374,85.333,310.741,85.333z"/>
	</g>
</g>
<g>
	<g>
		<path d="M362.263,85.333h-11.808c-5.633,0-10.199,4.566-10.199,10.199s4.566,10.199,10.199,10.199h11.808
			c5.633,0,10.199-4.566,10.199-10.199S367.896,85.333,362.263,85.333z"/>
	</g>
</g>
<g>
</g>
<g>
</g>
<g>
</g>
<g>
</g>
<g>
</g>
<g>
</g>
<g>
</g>
<g>
</g>
<g>
</g>
<g>
</g>
<g>
</g>
<g>
</g>
<g>
</g>
<g>
</g>
<g>
</g>
</svg>
