<?xml version="1.0" encoding="utf-8"?>
<!-- Svg Vector Icons : http://www.onlinewebfonts.com/icon -->
<!DOCTYPE svg PUBLIC "-//W3C//DTD SVG 1.1//EN" "http://www.w3.org/Graphics/SVG/1.1/DTD/svg11.dtd">
<svg version="1.1" xmlns="http://www.w3.org/2000/svg" xmlns:xlink="http://www.w3.org/1999/xlink" x="0px" y="0px" viewBox="0 0 1000 1000" enable-background="new 0 0 1000 1000" xml:space="preserve">
<metadata> Svg Vector Icons : http://www.onlinewebfonts.com/icon </metadata>
<g><g transform="translate(0.000000,511.000000) scale(0.100000,-0.100000)"><path d="M7393.6,4549.2c-318.5-44.4-770.2-227.8-1003.7-407.3c-57.9-44.4-739.3-611.9-1515.3-1260.5c-774-648.6-1995.9-1667.8-2712-2268.1C1446.4,15,813.3-519.7,757.3-573.7c-223.9-214.3-438.2-554-542.4-859c-142.8-415-152.5-899.5-29-1328c102.3-351.3,262.5-625.4,534.7-907.2c349.4-361,770.2-579.1,1268.2-654.3c440.1-65.6,901.4,7.7,1301,208.5c274.1,137-113.9-177.6,3833.5,3121.2C8233.2-64.1,9186.8,738.9,9242.8,792.9c247.1,235.5,476.8,621.6,571.4,961.3c142.8,499.9,106.2,1030.8-100.4,1497.9c-223.9,505.7-673.7,943.9-1179.4,1146.6C8190.8,4537.6,7735.2,4597.5,7393.6,4549.2z M8078.8,4242.3c783.7-162.1,1389.8-791.4,1515.3-1571.2c32.8-204.6,15.4-596.5-36.7-795.3c-83-314.6-281.8-652.4-517.3-880.2c-61.8-59.8-675.6-581-1364.7-1156.2C6801-892.2,6414.9-1203,6397.6-1191.4c-13.5,9.6-140.9,156.3-281.8,326.2c-293.4,349.4-2109.8,2511.3-2152.3,2559.6c-25.1,29,92.7,135.1,1204.5,1063.6c1422.6,1189,1399.4,1171.7,1567.4,1268.2C7131.1,4255.8,7629.1,4335,8078.8,4242.3z M4949.8,80.6c675.6-801.1,1227.7-1465.1,1227.7-1474.7c0-19.3-2466.9-2090.5-2710.1-2277.7c-166-127.4-469.1-274.1-677.5-330.1c-233.6-63.7-619.6-73.3-859-23.2c-596.5,123.5-1086.7,498-1351.2,1036.6c-152.5,308.8-183.4,455.6-181.4,859c0,310.8,5.8,351.3,54,511.5c100.4,332,270.2,613.8,507.7,841.6C1064.2-676,3701,1538,3716.4,1538C3720.3,1538,4276.2,881.7,4949.8,80.6z"/><path d="M7368.5,3369.8c-272.2-30.9-582.9-158.3-756.7-310.8c-98.4-86.9-113.9-162.1-48.3-227.8c65.6-65.6,131.3-57.9,250.9,29c225.8,164.1,432.4,229.7,723.9,229.7c341.7,0,592.6-100.4,849.3-339.7c146.7-137,196.9-156.3,274.1-102.3c110,77.2,56,204.6-162.1,386.1C8192.7,3288.8,7762.3,3416.1,7368.5,3369.8z"/></g></g>
</svg>