<?xml version="1.0" encoding="iso-8859-1"?>
<!-- Generator: Adobe Illustrator 19.0.0, SVG Export Plug-In . SVG Version: 6.00 Build 0)  -->
<svg version="1.1" id="Layer_1" xmlns="http://www.w3.org/2000/svg" xmlns:xlink="http://www.w3.org/1999/xlink" x="0px" y="0px"
	 viewBox="0 0 512 512" style="enable-background:new 0 0 512 512;" xml:space="preserve">
<g>
	<g>
		<g>
			<path d="M25.6,136.533h119.467c4.71,0,8.533-3.823,8.533-8.533V76.8c0-4.71-3.823-8.533-8.533-8.533h-102.4
				c-14.114,0-25.6,11.486-25.6,25.6V128C17.067,132.71,20.89,136.533,25.6,136.533z M34.133,93.867
				c0-4.702,3.831-8.533,8.533-8.533h93.867v34.133h-102.4V93.867z"/>
			<path d="M170.667,76.8V128c0,4.71,3.823,8.533,8.533,8.533h119.467c4.71,0,8.533-3.823,8.533-8.533V93.867
				c0-14.114-11.486-25.6-25.6-25.6H179.2C174.49,68.267,170.667,72.09,170.667,76.8z M187.733,85.333H281.6
				c4.702,0,8.533,3.831,8.533,8.533v25.6h-102.4V85.333z"/>
			<path d="M42.667,307.2h102.4c4.71,0,8.533-3.823,8.533-8.533V162.133c0-4.71-3.823-8.533-8.533-8.533
				c-4.71,0-8.533,3.823-8.533,8.533v128H42.667c-4.702,0-8.533-3.831-8.533-8.533V162.133c0-4.71-3.823-8.533-8.533-8.533
				c-4.71,0-8.533,3.823-8.533,8.533V281.6C17.067,295.714,28.553,307.2,42.667,307.2z"/>
			<path d="M93.867,51.2c4.71,0,8.533-3.823,8.533-8.533c0-14.114,11.486-25.6,25.6-25.6s25.6,11.486,25.6,25.6
				c0,4.71,3.823,8.533,8.533,8.533c4.71,0,8.533-3.823,8.533-8.533c0-14.114,11.486-25.6,25.6-25.6s25.6,11.486,25.6,25.6
				c0,4.71,3.823,8.533,8.533,8.533s8.533-3.823,8.533-8.533C238.933,19.14,219.793,0,196.267,0
				c-13.943,0-26.342,6.724-34.133,17.092C154.342,6.724,141.943,0,128,0c-23.526,0-42.667,19.14-42.667,42.667
				C85.333,47.377,89.156,51.2,93.867,51.2z"/>
			<path d="M179.2,153.6c-4.71,0-8.533,3.823-8.533,8.533v136.533c0,4.71,3.823,8.533,8.533,8.533h102.4
				c14.114,0,25.6-11.486,25.6-25.6V162.133c0-4.71-3.823-8.533-8.533-8.533s-8.533,3.823-8.533,8.533V281.6
				c0,4.702-3.831,8.533-8.533,8.533h-93.867v-128C187.733,157.423,183.91,153.6,179.2,153.6z"/>
			<path d="M332.8,494.933h-17.067c-4.71,0-8.533,3.823-8.533,8.533s3.823,8.533,8.533,8.533H332.8c4.71,0,8.533-3.823,8.533-8.533
				S337.51,494.933,332.8,494.933z"/>
			<path d="M418.133,392.533c-14.114,0-25.6,11.486-25.6,25.6s11.486,25.6,25.6,25.6s25.6-11.486,25.6-25.6
				S432.247,392.533,418.133,392.533z M418.133,426.667c-4.702,0-8.533-3.831-8.533-8.533s3.831-8.533,8.533-8.533
				s8.533,3.831,8.533,8.533S422.835,426.667,418.133,426.667z"/>
			<path d="M500.966,284.1l-23.39-23.39l-8.243-98.577c0-23.526-19.14-42.667-42.667-42.667H332.8c-4.71,0-8.533,3.823-8.533,8.533
				v281.6H187.051c-4.156-28.902-29.013-51.2-59.051-51.2c-32.939,0-59.733,26.795-59.733,59.733S95.061,477.867,128,477.867
				c30.037,0,54.895-22.298,59.051-51.2H332.8c4.71,0,8.533-3.823,8.533-8.533v-281.6h85.333c13.875,0,25.6,11.725,25.626,26.308
				L460.058,256H431.94l10.897-21.786c2.108-4.215,0.393-9.335-3.823-11.452c-4.224-2.108-9.335-0.393-11.452,3.823L412.86,256
				h-45.926c-4.71,0-8.533,3.823-8.533,8.533c0,4.71,3.823,8.533,8.533,8.533h98.867l23.1,23.1
				c4.864,4.864,6.016,16.051,6.033,19.567v8.533H486.4c-4.71,0-8.533,3.823-8.533,8.533c0,4.71,3.823,8.533,8.533,8.533h8.533
				V409.6h-17.749c-4.156-28.902-29.013-51.2-59.051-51.2c-32.939,0-59.733,26.795-59.733,59.733s26.795,59.733,59.733,59.733
				c30.037,0,54.895-22.298,59.051-51.2h26.283c4.71,0,8.533-3.823,8.533-8.533v-102.4C512,313.626,511.693,294.818,500.966,284.1z
				 M128,460.8c-23.526,0-42.667-19.14-42.667-42.667c0-23.526,19.14-42.667,42.667-42.667c23.526,0,42.667,19.14,42.667,42.667
				C170.667,441.66,151.526,460.8,128,460.8z M418.133,460.8c-23.526,0-42.667-19.14-42.667-42.667
				c0-23.526,19.14-42.667,42.667-42.667c23.526,0,42.667,19.14,42.667,42.667C460.8,441.66,441.66,460.8,418.133,460.8z"/>
			<path d="M128,392.533c-14.114,0-25.6,11.486-25.6,25.6s11.486,25.6,25.6,25.6s25.6-11.486,25.6-25.6S142.114,392.533,128,392.533
				z M128,426.667c-4.702,0-8.533-3.831-8.533-8.533s3.831-8.533,8.533-8.533s8.533,3.831,8.533,8.533S132.702,426.667,128,426.667z
				"/>
			<path d="M503.467,494.933H366.933c-4.71,0-8.533,3.823-8.533,8.533s3.823,8.533,8.533,8.533h136.533
				c4.71,0,8.533-3.823,8.533-8.533S508.177,494.933,503.467,494.933z"/>
			<path d="M128,494.933H8.533c-4.71,0-8.533,3.823-8.533,8.533S3.823,512,8.533,512H128c4.71,0,8.533-3.823,8.533-8.533
				S132.71,494.933,128,494.933z"/>
			<path d="M264.533,494.933H179.2c-4.71,0-8.533,3.823-8.533,8.533S174.49,512,179.2,512h85.333c4.71,0,8.533-3.823,8.533-8.533
				S269.244,494.933,264.533,494.933z"/>
			<path d="M42.667,426.667c4.71,0,8.533-3.823,8.533-8.533s-3.823-8.533-8.533-8.533c-14.353,0-25.6-11.247-25.6-25.6v-42.667
				h281.6c4.71,0,8.533-3.823,8.533-8.533c0-4.71-3.823-8.533-8.533-8.533H8.533C3.823,324.267,0,328.09,0,332.8V384
				C0,407.927,18.739,426.667,42.667,426.667z"/>
		</g>
	</g>
</g>
<g>
</g>
<g>
</g>
<g>
</g>
<g>
</g>
<g>
</g>
<g>
</g>
<g>
</g>
<g>
</g>
<g>
</g>
<g>
</g>
<g>
</g>
<g>
</g>
<g>
</g>
<g>
</g>
<g>
</g>
</svg>
