<?xml version="1.0" encoding="iso-8859-1"?>
<!-- Generator: Adobe Illustrator 19.0.0, SVG Export Plug-In . SVG Version: 6.00 Build 0)  -->
<svg version="1.1" id="Layer_1" xmlns="http://www.w3.org/2000/svg" xmlns:xlink="http://www.w3.org/1999/xlink" x="0px" y="0px"
	 viewBox="0 0 496 496" style="enable-background:new 0 0 496 496;" xml:space="preserve">
<g>
	<g>
		<g>
			<path d="M464,243.36l-4.032-2.304L408,211.36v-54.72l51.968-29.696l-7.936-13.888L400,142.792l-48-27.424V60.64l51.968-29.696
				l-7.936-13.888L344,46.792L320,33.08l-24-13.72V0h-16v19.36l-48,27.424l-56-32L112,51.36v64l-48,27.424l-52.032-29.736
				l-7.936,13.888L56,156.64v64l64,36.568l64-36.568v-64l48-27.424l48,27.424v54.72l-56,32v64l-56,32V376h16v-27.36l48-27.432
				l24,13.712l24,13.712V360h16v-11.36l48-27.424l56,32l64-36.568V243.36z M168,211.36l-48,27.432L72,211.36v-54.72l48-27.432
				l24,13.712l24,13.712V211.36z M224,115.36l-48,27.432l-24-13.712l-24-13.712V60.64l48-27.432l48,27.432V115.36z M240,115.344
				V60.64l48-27.432l24,13.712l24,13.712v54.72l-24,13.712l-24,13.712L240,115.344z M336,307.352l-48,27.432l-24-13.712l-24-13.712
				v-54.72l48-27.432l24,13.712l24,13.712V307.352z M320,225.072l-24-13.712v-54.72l24-13.712l24-13.712l48,27.432v54.712
				l-24,13.712l-24,13.712L320,225.072z M448,307.368l-48,27.424l-48-27.432v-54.72l24-13.712l24-13.712l48,27.432V307.368z"/>
			<path d="M368.304,409.312c-6.024-2.016-12.704-1.424-18.28,1.624l-17.552,9.592l2.416-7.184c2.28-6.768,1.16-14.272-3.008-20.08
				c-4.168-5.792-10.92-9.264-18.064-9.264c-9.152,0-17.256,5.488-20.656,13.984L282.752,424h-24.688l-0.44-0.216l17.304-9.2
				c10.416-5.52,15.488-17.72,12.064-28.992c-1.968-6.504-6.4-11.8-12.472-14.872c-6.064-3.08-12.944-3.528-19.368-1.28
				l-65.632,23.024L165.752,408h-53.576v-16H0v104h112.168v-14.24l30.432,6.088L248.96,488l80.784-16.16l41.456-20.16
				c11.168-5.504,15.888-18.72,10.76-30.072C379.32,415.824,374.352,411.336,368.304,409.312z M96.168,480H16v-72h80.168V480z
				 M308.016,403.928c1.704-4.288,8.176-5.08,10.864-1.328c1.184,1.656,1.504,3.704,0.848,5.632L314.424,424h-14.44L308.016,403.928
				z M364.12,437.344l-38.544,19.016L247.384,472H144.96l-32.792-6.56V424h58.424l25.176-16.784l64.68-22.696
				c2.264-0.792,4.704-0.64,6.832,0.456c2.144,1.088,3.704,2.952,4.4,5.248c1.2,3.976-0.584,8.272-4.256,10.224l-44.704,23.768
				L254.28,440h75.936l27.48-15.016c1.704-0.936,3.688-1.144,5.536-0.496c1.856,0.616,3.336,1.944,4.144,3.728
				C368.936,431.664,367.504,435.672,364.12,437.344z"/>
			<rect x="416" y="256" width="16" height="16"/>
			<rect x="416" y="288" width="16" height="16"/>
			<rect x="312" y="160" width="16" height="16"/>
			<rect x="312" y="192" width="16" height="16"/>
			<rect x="136" y="160" width="16" height="16"/>
			<rect x="136" y="192" width="16" height="16"/>
			<rect x="192" y="64" width="16" height="16"/>
			<rect x="192" y="96" width="16" height="16"/>
			<rect x="480" y="352" width="16" height="16"/>
			<rect x="464" y="336" width="16" height="16"/>
			<rect x="448" y="352" width="16" height="16"/>
			<rect x="464" y="368" width="16" height="16"/>
			<rect x="80" y="16" width="16" height="16"/>
			<rect x="64" width="16" height="16"/>
			<rect x="48" y="16" width="16" height="16"/>
			<rect x="64" y="32" width="16" height="16"/>
			<rect x="184" y="272" width="16" height="16"/>
			<rect x="168" y="256" width="16" height="16"/>
			<rect x="152" y="272" width="16" height="16"/>
			<rect x="168" y="288" width="16" height="16"/>
			<rect x="440" y="56" width="16" height="16"/>
			<rect x="424" y="40" width="16" height="16"/>
			<rect x="408" y="56" width="16" height="16"/>
			<rect x="424" y="72" width="16" height="16"/>
		</g>
	</g>
</g>
<g>
</g>
<g>
</g>
<g>
</g>
<g>
</g>
<g>
</g>
<g>
</g>
<g>
</g>
<g>
</g>
<g>
</g>
<g>
</g>
<g>
</g>
<g>
</g>
<g>
</g>
<g>
</g>
<g>
</g>
</svg>
