<?xml version="1.0" encoding="utf-8"?>
<!-- Generator: Adobe Illustrator 25.2.3, SVG Export Plug-In . SVG Version: 6.00 Build 0)  -->
<svg version="1.1" id="レイヤー_1" xmlns="http://www.w3.org/2000/svg" xmlns:xlink="http://www.w3.org/1999/xlink" x="0px"
	 y="0px" viewBox="0 0 393.7 358.3" style="enable-background:new 0 0 393.7 358.3;" xml:space="preserve">
<style type="text/css">
	.st0{fill:#F3F5F6;}
</style>
<g id="レイヤー_1_1_">
	<g>
		<g>
			<path class="st0" d="M179.3,123.9c-0.3-0.4-0.6-0.8-0.9-1.1c-2.9-2.8-3.4-5.6-1.4-9.6c1.8-3.5,4.4-3.3,7.3-3.8
				c15.1-2.9,13.1,0.4,13.2-15.1c0-2.6-0.1-5.4,0-8c0.2-3.5-1.2-5.3-4.7-5.6c-3.8-0.4-7.5-0.9-11.2-1.7c-1.4-0.3-3.2-0.9-3.8-2
				c-2.4-4-3.6-7.5,0.6-12c8.4-9.5,8.1-9.8-0.9-18.5c-12.8-12.2-9.4-10.7-22.3-1.5c-2.5,1.7-4.3,2.7-7.6,1.4
				c-3.4-1.4-4.5-3.1-5.1-6.7c-2.7-15.5,0.9-14.4-15.5-14.2c-13.7,0.1-13.5-2.9-15.5,13.8c-0.5,3.8-1.6,6.2-5.6,7.4
				c-2.6,0.9-4.3,0.8-6.2-0.9c-2.6-2.2-5.3-4-7.9-6.1c-2.7-2.2-5.4-2.4-7.9,0.1C79.5,44,75.3,48.1,71,52.3c-2.5,2.5-2.3,4.9,0,7.5
				c2.4,2.7,4.8,5.5,6.8,8.5c0.8,1.1,0.8,3,0.6,4.5c-0.8,4.5-3.9,6.2-8.3,6.5c-2.9,0.2-6,0.8-8.9,1.1c-2.9,0.4-4.4,1.7-4.4,4.9
				c0.2,5.9,0.2,11.6,0,17.5c-0.1,3.2,1.3,4.5,4.4,4.8c3.9,0.5,7.9,0.9,11.6,1.9c1.5,0.4,3,1.7,4.1,2.9c3,3.9,2.6,7.6-1.1,11
				c-1.7,1.5-3,3.7-4.5,5.5c-2,2.4-2.4,4.7,0,7.1c4.4,4.4,8.5,8.9,13.2,12.8c1.4,1.1,4.8,1.1,6.6,0.3c3.5-1.7,6.3-4.6,9.7-6.7
				c1.2-0.8,3.1-0.9,4.5-0.7c4.4,0.8,6.6,3.5,6.5,8.1c0,2.2,0.7,4.4,0.9,6.5c0.8,5.9,1.5,6.4,7.6,6.4c2.6,0,5.4,0.1,8,0
				c12.8-0.3,12.3,2.9,14.5-13.4c0.5-3.8,1.2-6.2,5.3-7.6c2.7-0.9,4.5-0.9,6.7,1c2.5,2.2,5.3,4,7.9,6.1c2.6,2,5.1,2.3,7.7-0.1
				c2.6-2.4,5.3-4.5,7.7-7C186.8,133.3,186.8,133.2,179.3,123.9z M126.6,120.9c-15.4-0.1-27.5-12-27.4-27.1
				C99.3,79,111.8,67,127.1,67.1c15.1,0,27.8,12.3,27.9,27C154.9,109,142.2,121,126.6,120.9z"/>
			<path class="st0" d="M195.8,50c0.2,0,0.3,0.1,0.5,0.1c5.1,0.9,6.9,4.4,4.9,9.2c-1.1,2.7-2.2,5.6-3.3,8.3c-0.9,2.2-0.6,3.8,1.8,5
				c15.2,8,10.1,9.5,21-3.3c3-3.6,7-3.6,10,0.2c1.8,2.2,3.7,4.4,5.4,6.6c2.2,3,4.4,3.1,7.5,1.1c12.6-7.7,12.1-3.8,6.3-18.2
				c-1.8-4.5,0.1-8,4.9-8.9c1.4-0.3,2.8-0.4,4.3-0.5c8.9-1.1,8.9-1.1,8.9-10.2c0-8.4,0-8.5-8.2-9.9c-1.5-0.3-3.1-0.5-4.6-0.7
				c-4.9-0.6-7.2-4.4-5.4-9c1.1-2.7,2.2-5.6,3.3-8.3c1.1-2.6,0.4-4.3-2.3-5.7c-14.4-7.5-9.7-9-20.3,3.5c-2.9,3.5-7.2,3.5-10.2-0.1
				c-1.5-1.8-3.2-3.5-4.4-5.5c-2.6-4-5.4-4-9.4-1.5c-10,6-10.2,5.8-5.6,16.8c2.4,5.7,0.2,9.1-6.1,9.7c-2.9,0.4-6,0.7-8.8,1.6
				c-1.2,0.4-2.6,2.2-2.7,3.4C181.9,47.6,182,47.6,195.8,50z M225.7,26.1c7.4,0.2,13.6,6.6,13.4,13.7c-0.2,7.3-6.5,13.2-14.1,13
				c-7.7-0.2-13.4-6.2-13.3-13.7C211.8,31.8,218.2,25.9,225.7,26.1z"/>
			<path class="st0" d="M268,149.1c0-9.2,0-9.2-9.4-10.4c-1.2-0.2-2.5-0.5-3.7-0.7c-5.1-0.8-7.1-4.2-5.2-8.9
				c1.1-2.9,2.6-5.8,3.3-8.8c0.3-1.3-0.6-3.9-1.7-4.5c-15-8.2-10.2-9.5-20.7,2.7c-0.1,0.1-0.2,0.3-0.3,0.4c-2.7,3.3-7.1,3.4-9.8,0.1
				c-1.6-1.9-3.3-3.8-4.7-5.9c-2.5-3.5-5-4.2-9-1.7c-10.5,6.2-10.6,6-6,17.1c2.2,5.3,0.4,8.6-5.2,9.6c-3.1,0.5-6.3,0.8-9.3,1.8
				c-1.4,0.5-3.2,2.6-3.2,4c0.3,16.1-3.4,13,12.9,15.7c4.4,0.8,6.8,4.4,5.2,8.5c-0.9,2.5-1.8,5-3,7.4c-1.7,3.5-0.9,5.5,2.6,7.4
				c11.3,6.2,11.2,6.2,19.2-3.8c3.1-3.9,7.4-3.9,10.5-0.1c1.7,2.1,3.5,4.1,5.1,6.2c2.2,2.9,4.3,3.4,7.6,1.4
				c12.8-7.9,12.1-3.7,6.5-18.1c-1.9-4.9,0.2-8.4,5.5-9.1c2.5-0.3,5-0.9,7.5-1.1c4-0.4,6.1-2.2,5.3-6.4C267.9,151,268,150,268,149.1
				z M225.1,162.2c-7.7-0.4-13.5-6.4-13.3-13.8c0.2-7.3,6.6-13.3,14-13.1c7.4,0.2,13.7,6.6,13.4,13.7
				C239,156.2,232.2,162.5,225.1,162.2z"/>
		</g>
		<path class="st0" d="M205.1,283.1c-19.6,1.5-42.7-2.2-65.7-7.6c-5.2-1.2-9.6,1.3-10.7,6c-1,4.4,1.7,8.8,6.7,10
			c21.3,5.1,42.8,9,64.9,8.4c11.8-0.3,23.7-0.1,35.6-0.1c8.9,0,17.6-1.5,25.7-5.4c8.5-4,14.5-10.3,18.1-18.9
			c0.7-1.6,1.8-3.2,3.2-4.1c25.4-16.4,50.8-32.8,76.3-49c3.8-2.4,8.2-4.1,12.6-5.4c6.7-2,13.1-0.7,17.9,4.7
			c4.8,5.4,4.7,11.8,2.5,18.1c-3.1,9.2-9.9,15.8-17.7,21c-24.2,15.8-48.5,31.4-72.9,46.9c-16.3,10.4-32.7,20.6-49.2,30.8
			c-6.2,3.8-12.6,7.2-18.8,11c-18.1,11.1-36.9,11.3-56,3.3c-11.6-4.9-22.7-10.7-34-16.3c-15.5-7.6-31-15.3-46.5-23
			c-6.8-3.4-13.1-3.2-19.5,1c-6.8,4.4-13.7,8.6-20.6,12.9c-7.6,4.7-12.2,3.4-15.9-4.6c-13.2-28.1-26.3-56.3-39.5-84.4
			c-3.2-6.8-1.7-11,5.2-13.9c22.7-9.7,45.2-19.8,68.2-28.6c18.3-7,37.6-6.6,56.4-1.9c10.1,2.5,17.7,9.7,24.7,17.2
			c5.1,5.4,10.1,11.1,15.2,16.6c3.1,3.2,6.9,5,11.3,6.1c18.4,4.7,37,7.1,55.9,7.5c5,0.1,10.3,1.6,15,3.5
			c7.9,3.2,12.1,10.5,11.6,18.4c-0.5,8.4-5.5,15-14.1,17.3c-5,1.4-10.2,2.2-15.3,2.4C227,283.3,218.1,283.1,205.1,283.1z"/>
		<path class="st0" d="M282,252c-4.4-6.4-8.5-12.3-12.7-18.4c6.6-4,13.7-8.3,20.8-12.6c7.2-4.4,14.4-8.8,21.6-13.2
			c8.3-5.1,17.2-7,26.7-3.9c3.3,1.1,6.1,3.3,10,5.5C325.3,224.2,303.4,238.2,282,252z"/>
		<path class="st0" d="M212.3,222.2c2.5-1.5,5-3.1,7.5-4.6c12.5-7.3,24.7-15.3,37.6-21.8c11.7-5.8,24.4-6.5,37-1.7
			c0.9,0.3,1.8,0.8,2.6,1.2c0.3,0.2,0.5,0.5,1.2,1.1c-4.7,2.9-9.2,5.7-13.8,8.5c-10.7,6.5-21.5,13.1-32.3,19.5
			c-1.3,0.7-2.9,1.3-4.3,1.3c-8-0.4-15.9-0.9-23.9-1.5c-3.8-0.3-7.6-0.7-11.3-1.1C212.5,222.8,212.4,222.5,212.3,222.2z"/>
	</g>
</g>
</svg>
